<svg width="94" height="78" viewBox="0 0 94 78" fill="none" xmlns="http://www.w3.org/2000/svg">
<path d="M36.839 20.7971V22.0496C36.8829 23.0924 36.6966 24.1325 36.2919 25.1031C35.8872 26.0737 35.2731 26.9533 34.489 27.6856C33.6802 28.4099 32.7272 28.9738 31.6856 29.3442C30.6441 29.7146 29.5351 29.8842 28.4236 29.8429C27.2107 29.878 26.003 29.6788 24.8738 29.2574C23.7447 28.8359 22.7177 28.2011 21.8554 27.3915C21.0116 26.6193 20.3448 25.6903 19.8968 24.6626C19.4488 23.635 19.2291 22.5307 19.2516 21.4189C19.2387 20.2995 19.4625 19.1891 19.9097 18.1531C20.357 17.1171 21.0186 16.1767 21.8555 15.3873C22.6925 14.5978 23.6877 13.9755 24.7825 13.5569C25.8773 13.1384 27.0495 12.9321 28.2297 12.9503C29.7584 12.934 31.2661 13.2893 32.609 13.9822C33.8758 14.6218 34.9395 15.5708 35.6898 16.7311L32.8028 18.3089C32.3608 17.6139 31.721 17.0512 30.9569 16.6854C30.109 16.2625 29.163 16.0476 28.2051 16.0603C27.4603 16.0368 26.7184 16.1595 26.0261 16.4209C25.3337 16.6823 24.7058 17.0766 24.1819 17.5791C23.6594 18.0848 23.2503 18.6857 22.9793 19.3454C22.7083 20.0052 22.581 20.7101 22.605 21.4178C22.5808 22.12 22.7107 22.8194 22.9864 23.4715C23.2621 24.1237 23.6776 24.7144 24.2065 25.2064C24.7716 25.7134 25.4387 26.1072 26.1679 26.3642C26.8971 26.6211 27.6735 26.7359 28.4506 26.7017C29.5936 26.7443 30.7235 26.4576 31.6913 25.8794C32.5368 25.3442 33.156 24.5431 33.4397 23.6174H28.2544V20.7871H36.8401L36.839 20.7971Z" fill="white"/>
<path d="M48.6273 29.5175L45.1658 23.8781H42.6102V29.5142H39.2344V13.2813H46.0835C46.8305 13.2789 47.5708 13.4164 48.2618 13.6857C48.9528 13.9551 49.5809 14.3511 50.1103 14.851C50.6396 15.351 51.0598 15.9451 51.3467 16.5992C51.6336 17.2534 51.7816 17.9548 51.7822 18.6633C51.785 19.6602 51.4692 20.6346 50.8763 21.4579C50.2869 22.3053 49.4561 22.9768 48.4805 23.3945L52.271 29.5231H48.6285L48.6273 29.5175ZM42.609 16.2731V21.0757H46.0823C46.3933 21.0775 46.7009 21.0152 46.984 20.893C47.267 20.7708 47.5186 20.5917 47.7214 20.3681C48.174 19.9055 48.4196 19.2943 48.4064 18.6633C48.4207 18.0348 48.1733 17.4263 47.7179 16.9696C47.5131 16.749 47.2608 16.5727 46.978 16.4526C46.6953 16.3325 46.3886 16.2713 46.0787 16.2731H42.609Z" fill="white"/>
<path d="M67.6032 13.2833C68.7023 13.2586 69.7945 13.4543 70.8084 13.8575C71.8222 14.2607 72.7348 14.8625 73.4865 15.6233C75.0045 17.2025 75.846 19.2624 75.846 21.3992C75.846 23.5361 75.0045 25.596 73.4865 27.1751C72.7349 27.9362 71.8224 28.538 70.8085 28.9413C69.7946 29.3445 68.7024 29.5401 67.6032 29.5151H60.8047V13.2833H67.6032ZM67.6032 26.4586C68.2769 26.482 68.9481 26.3689 69.5721 26.127C70.1962 25.8851 70.7587 25.5199 71.2222 25.0558C72.1232 24.0302 72.6166 22.7375 72.6166 21.4026C72.6166 20.0677 72.1232 18.775 71.2222 17.7494C70.7587 17.2852 70.1962 16.92 69.5721 16.6781C68.9481 16.4362 68.2769 16.3232 67.6032 16.3465H64.1793V26.4598L67.6032 26.4586Z" fill="white"/>
<path d="M16.5095 34.0411C17.6086 34.0164 18.7008 34.2121 19.7146 34.6153C20.7285 35.0186 21.6411 35.6203 22.3927 36.3811C23.9108 37.9603 24.7523 40.0202 24.7523 42.157C24.7523 44.2939 23.9108 46.3538 22.3927 47.9329C21.6412 48.694 20.7286 49.2958 19.7147 49.6991C18.7009 50.1023 17.6086 50.2979 16.5095 50.2729H9.71094V34.0411H16.5095ZM16.5095 47.2165C17.1832 47.2398 17.8544 47.1267 18.4784 46.8848C19.1024 46.643 19.6649 46.2777 20.1285 45.8136C21.0295 44.7879 21.5229 43.4953 21.5229 42.1604C21.5229 40.8255 21.0295 39.5328 20.1285 38.5072C19.6649 38.043 19.1024 37.6778 18.4784 37.4359C17.8544 37.194 17.1832 37.081 16.5095 37.1043H13.0867V47.2176H16.5095V47.2165Z" fill="white"/>
<path d="M30.532 47.2172H37.7477V50.2792H27.1562V34.043H37.6243V37.105H30.532V40.5593H37.0133V43.5746H30.532V47.2172Z" fill="white"/>
<path d="M45.9612 50.6035C44.4536 50.6522 42.9644 50.2773 41.6807 49.526C40.5439 48.8328 39.683 47.8 39.2344 46.5909L42.1214 44.9897C42.3922 45.7602 42.9265 46.4228 43.6396 46.8726C44.3526 47.3223 45.2036 47.5334 46.0576 47.4723C46.7877 47.5273 47.517 47.3565 48.1362 46.9854C48.3529 46.8347 48.5266 46.6351 48.6415 46.4047C48.7564 46.1744 48.8088 45.9204 48.7941 45.6659C48.7794 45.4115 48.698 45.1645 48.5573 44.9474C48.4165 44.7303 48.2209 44.5499 47.9881 44.4225C47.0745 43.9667 46.1048 43.6201 45.1011 43.3907C44.4402 43.21 43.7909 42.9932 43.1565 42.7411C42.5944 42.5067 42.061 42.2149 41.5656 41.8708C41.0435 41.5169 40.6263 41.0414 40.3542 40.4902C40.0648 39.8783 39.9227 39.2129 39.9382 38.5425C39.9097 37.8762 40.0433 37.2127 40.3285 36.6033C40.6138 35.9939 41.0431 35.4549 41.5832 35.028C42.6974 34.1494 44.1096 33.6835 45.5582 33.7165C46.8502 33.6912 48.1215 34.026 49.2148 34.6792C50.2809 35.3361 51.1323 36.2623 51.6729 37.3535L48.8365 38.908C48.5851 38.2812 48.1349 37.7438 47.548 37.3698C46.9611 36.9958 46.2663 36.8036 45.5594 36.8198C44.9728 36.7889 44.3926 36.9485 43.9144 37.2722C43.7236 37.4083 43.5697 37.5855 43.4653 37.7891C43.3609 37.9927 43.309 38.2169 43.314 38.4433C43.3092 38.6867 43.3682 38.9274 43.4857 39.1439C43.6032 39.3604 43.7756 39.5458 43.9872 39.6835C44.7897 40.1481 45.661 40.4959 46.5722 40.7153C47.0932 40.8706 47.4887 40.9902 47.759 41.0741C48.0292 41.1581 48.3958 41.2895 48.8588 41.4686C49.2325 41.6046 49.593 41.7713 49.9363 41.9667C50.2391 42.1573 50.5287 42.3661 50.8034 42.5918C51.0986 42.8204 51.3508 43.0946 51.5496 43.403C51.738 43.7214 51.8859 44.0599 51.9902 44.4114C52.1165 44.8301 52.1782 45.264 52.1735 45.6995C52.2012 46.3815 52.0595 47.0601 51.7599 47.6806C51.4603 48.3012 51.0111 48.8462 50.4486 49.2719C49.1609 50.1958 47.5731 50.6637 45.9601 50.5946L45.9612 50.6035Z" fill="white"/>
<path d="M54.2486 29.5184V7.65837H3.37577V55.9069H54.2533V34.0413H57.6302V59.1049H0V4.45703H57.6255V29.5184H54.2486Z" fill="white"/>
<path d="M77.6046 41.56V42.8124C77.6486 43.8553 77.4623 44.8953 77.0576 45.8659C76.6529 46.8365 76.0388 47.7162 75.2546 48.4485C74.4459 49.1728 73.4929 49.7367 72.4513 50.1071C71.4098 50.4776 70.3008 50.6471 69.1893 50.6057C67.9764 50.6409 66.7686 50.4416 65.6395 50.0202C64.5103 49.5988 63.4833 48.9639 62.621 48.1543C61.7771 47.382 61.1102 46.4528 60.6622 45.425C60.2142 44.3971 59.9946 43.2926 60.0172 42.1806C60.0043 41.0613 60.2281 39.9508 60.6754 38.9148C61.1226 37.8789 61.7843 36.9384 62.6212 36.149C63.4581 35.3595 64.4534 34.7372 65.5482 34.3186C66.643 33.9001 67.8151 33.6938 68.9954 33.712C70.5241 33.6957 72.0317 34.051 73.3746 34.7439C74.6415 35.3835 75.7051 36.3326 76.4555 37.4928L73.5685 39.0707C73.1264 38.3756 72.4866 37.8129 71.7226 37.4471C70.8747 37.0243 69.9287 36.8093 68.9707 36.822C68.226 36.7985 67.4841 36.9213 66.7917 37.1826C66.0994 37.444 65.4715 37.8383 64.9475 38.3408C64.425 38.8466 64.016 39.4474 63.7449 40.1072C63.4739 40.7669 63.3466 41.4718 63.3707 42.1795C63.3465 42.8817 63.4764 43.5811 63.752 44.2332C64.0277 44.8854 64.4432 45.4761 64.9722 45.9681C65.5372 46.4752 66.2043 46.869 66.9336 47.1259C67.6628 47.3828 68.4392 47.4976 69.2163 47.4635C70.3593 47.5061 71.4891 47.2193 72.4569 46.6411C73.3025 46.1059 73.9217 45.3048 74.2053 44.3791H69.0201V41.5488H77.6058L77.6046 41.56Z" fill="white"/>
<path d="M89.9119 34.043H93.2853V50.2792H90.7179L83.3812 40.352V50.2792H80.0078V34.043H82.5729L89.9142 43.9334V34.043H89.9119Z" fill="white"/>
<path d="M0 64.726H1.88V67.651L1.7625 68.6026H1.88C2.07702 68.2996 2.35406 68.0507 2.6837 67.8805C3.09735 67.6701 3.56228 67.5671 4.03142 67.5819C4.47457 67.5812 4.91265 67.6713 5.3157 67.846C5.72178 68.0225 6.08775 68.2723 6.39317 68.5814C6.71327 68.9074 6.96419 69.2887 7.13225 69.7046C7.31738 70.1602 7.40988 70.6449 7.40485 71.1331C7.41097 71.6214 7.31843 72.1064 7.13225 72.5617C6.96277 72.9769 6.712 73.358 6.39317 73.6849C6.08813 73.9944 5.72207 74.2443 5.3157 74.4203C4.91296 74.5959 4.47468 74.686 4.03142 74.6844C3.56226 74.6994 3.09727 74.5964 2.6837 74.3857C2.35325 74.2166 2.07594 73.9675 1.88 73.6637H1.7625V74.466H0V64.7227V64.726ZM3.6425 73.0408C3.88487 73.0409 4.12473 72.9943 4.3475 72.9038C4.57007 72.8142 4.77233 72.6848 4.94322 72.5227C5.12238 72.3514 5.26378 72.148 5.35917 71.9243C5.56965 71.4165 5.56965 70.852 5.35917 70.3442C5.26235 70.1213 5.12113 69.9181 4.94322 69.7459C4.77277 69.5832 4.57039 69.4537 4.3475 69.3648C4.12473 69.2742 3.88487 69.2276 3.6425 69.2277C3.40093 69.2274 3.16156 69.2713 2.9375 69.357C2.71443 69.4426 2.51183 69.5699 2.34177 69.7314C2.16303 69.903 2.02169 70.1063 1.92582 70.3297C1.71574 70.846 1.71574 71.418 1.92582 71.9343C2.02265 72.1572 2.16387 72.3604 2.34177 72.5327C2.51147 72.6946 2.71417 72.822 2.9375 72.9071C3.16161 72.9926 3.40094 73.0364 3.6425 73.0363V73.0408Z" fill="white"/>
<path d="M10.5266 74.1422L7.57031 67.8008H9.70881L11.4878 71.8423H11.5876L13.2949 67.8008H15.3888L10.9825 77.4092H8.96034L10.5243 74.1422H10.5266Z" fill="white"/>
<path d="M22.1961 74.6884C21.7809 74.6939 21.3672 74.6391 20.9694 74.5257C20.6371 74.4289 20.3224 74.2842 20.0365 74.0967C19.781 73.9275 19.5557 73.7206 19.3691 73.4839C19.1966 73.2698 19.0566 73.0339 18.9531 72.783L20.6334 72.1011C20.7677 72.4127 20.9952 72.6803 21.2878 72.871C21.5591 73.0381 21.8762 73.1257 22.1997 73.1229C22.4858 73.1366 22.7703 73.0753 23.0221 72.9457C23.1073 72.9071 23.1801 72.8478 23.2331 72.7738C23.2862 72.6998 23.3176 72.6137 23.3241 72.5245C23.3255 72.4361 23.3031 72.3488 23.2592 72.2708C23.2152 72.1928 23.151 72.1267 23.0727 72.0788C22.805 71.9287 22.5114 71.825 22.2055 71.7723L21.215 71.5684C20.9811 71.518 20.7531 71.4452 20.5347 71.3511C20.3038 71.2538 20.089 71.1254 19.8967 70.9701C19.7046 70.8139 19.5451 70.6249 19.4266 70.4129C19.2975 70.1779 19.2332 69.9157 19.2398 69.6507C19.2336 69.3469 19.3105 69.0466 19.4631 68.7794C19.6134 68.5241 19.8217 68.3037 20.0729 68.1342C20.3493 67.9484 20.6579 67.81 20.9847 67.7253C21.3515 67.6281 21.7307 67.5801 22.1115 67.5826C22.7323 67.5722 23.3469 67.7005 23.9058 67.957C24.4331 68.2066 24.8463 68.6302 25.0678 69.1482L23.4463 69.7733C23.3262 69.5242 23.1185 69.3226 22.8588 69.2028C22.6177 69.0892 22.3526 69.0286 22.0833 69.0256C21.8382 69.0218 21.596 69.0758 21.3783 69.1827C21.2932 69.2158 21.2197 69.271 21.1663 69.342C21.1129 69.413 21.0817 69.4968 21.0763 69.5839C21.0771 69.6617 21.1011 69.7376 21.1456 69.8029C21.1901 69.8682 21.2533 69.9202 21.3278 69.9527C21.5429 70.0607 21.7715 70.1427 22.0081 70.1967L23.0856 70.4408C23.6884 70.5457 24.2451 70.8171 24.6859 71.2208C25.0288 71.5639 25.2165 72.0206 25.2088 72.4933C25.2096 72.7825 25.1358 73.0675 24.9938 73.3234C24.8434 73.5943 24.6359 73.8329 24.384 74.0243C24.1018 74.238 23.7814 74.4018 23.4381 74.5079C23.0422 74.6302 22.6278 74.6901 22.2114 74.6851L22.1961 74.6884Z" fill="white"/>
<path d="M31.5409 74.6196L31.6584 73.668H31.5409C31.3439 73.971 31.0668 74.2199 30.7372 74.3901C30.3235 74.6005 29.8586 74.7035 29.3895 74.6887C28.9463 74.6894 28.5082 74.5993 28.1052 74.4246C27.6991 74.2481 27.3332 73.9983 27.0277 73.6892C26.7076 73.3633 26.4567 72.9819 26.2886 72.566C25.9246 71.6453 25.9246 70.6308 26.2886 69.7101C26.4574 69.2945 26.7083 68.9133 27.0277 68.5869C27.3328 68.2773 27.6988 68.0275 28.1052 67.8515C28.5079 67.6757 28.9462 67.5856 29.3895 67.5874C29.8586 67.5724 30.3236 67.6754 30.7372 67.886C31.0676 68.0551 31.345 68.3043 31.5409 68.608H31.6584V67.8058H33.4209V77.4143H31.5409V74.6285V74.6196ZM29.7784 73.0418C30.02 73.0419 30.2593 72.998 30.4834 72.9125C30.7065 72.8269 30.9091 72.6996 31.0791 72.5381C31.2578 72.3665 31.3992 72.1632 31.4951 71.9397C31.7052 71.4234 31.7052 70.8515 31.4951 70.3352C31.3982 70.1122 31.257 69.9091 31.0791 69.7368C30.9094 69.5749 30.7067 69.4476 30.4834 69.3624C30.2593 69.2769 30.02 69.2331 29.7784 69.2332C29.536 69.2329 29.2961 69.2795 29.0734 69.3702C28.8508 69.4597 28.6486 69.5891 28.4777 69.7513C28.2985 69.9226 28.1571 70.126 28.0617 70.3497C27.8515 70.8571 27.8515 71.4212 28.0617 71.9286C28.1585 72.1516 28.2997 72.3547 28.4777 72.527C28.6481 72.6897 28.8505 72.8191 29.0734 72.9081C29.2962 72.9986 29.536 73.0452 29.7784 73.0451V73.0418Z" fill="white"/>
<path d="M39.8429 73.5984H39.7254C39.5073 73.9332 39.2001 74.2076 38.8347 74.394C38.4424 74.5935 38.0026 74.694 37.5575 74.6859C37.1851 74.7123 36.8113 74.6554 36.4663 74.52C36.1212 74.3845 35.8144 74.1742 35.5706 73.906C35.109 73.3081 34.8788 72.5778 34.9185 71.8378V67.8008H36.7985V71.625C36.7652 72.0086 36.8851 72.39 37.1345 72.6936C37.2628 72.8144 37.4168 72.9078 37.5862 72.9675C37.7556 73.0273 37.9365 73.0521 38.1168 73.0401C38.3541 73.0444 38.5885 72.9903 38.7971 72.883C38.9942 72.7783 39.1653 72.6346 39.2989 72.4618C39.4434 72.2736 39.5502 72.0617 39.6138 71.8367C39.6869 71.586 39.7232 71.3269 39.7219 71.0667V67.8008H41.6019V74.4642H39.8394V73.5928L39.8429 73.5984Z" fill="white"/>
<path d="M47.471 73.7618H47.3535C47.1282 74.0201 46.8589 74.2408 46.5569 74.4148C46.1919 74.6096 45.7768 74.7038 45.3584 74.6867C45.0089 74.6891 44.6618 74.6317 44.3338 74.5173C44.0259 74.4108 43.7412 74.2518 43.4936 74.0482C43.2546 73.8485 43.0638 73.6022 42.9343 73.3261C42.7982 73.0351 42.7301 72.7196 42.7346 72.4013C42.7301 72.0793 42.8037 71.7606 42.9496 71.4697C43.0934 71.193 43.2986 70.9489 43.5512 70.7544C43.8217 70.5487 44.1312 70.394 44.463 70.2986C44.8326 70.1914 45.2174 70.1384 45.6039 70.1415C45.9844 70.1344 46.3645 70.1688 46.7366 70.244C46.9853 70.2978 47.2296 70.3685 47.4675 70.4557V70.2518C47.4702 70.083 47.4315 69.9159 47.3544 69.7637C47.2774 69.6115 47.164 69.4784 47.0233 69.3749C46.7101 69.1382 46.318 69.0153 45.9177 69.0283C45.5986 69.0292 45.2841 69.1 44.9987 69.2354C44.7133 69.3707 44.4648 69.5668 44.2727 69.8083L42.9097 68.9236C43.2711 68.4875 43.7365 68.139 44.2676 67.9065C44.7986 67.6741 45.3802 67.5644 45.9647 67.5864C46.8633 67.5272 47.7531 67.7865 48.4615 68.3141C48.7617 68.5928 48.9943 68.9301 49.143 69.3027C49.2917 69.6752 49.3531 70.074 49.3228 70.4713V74.4728H47.471V73.7652V73.7618ZM47.471 71.7561C47.2524 71.6571 47.0247 71.5773 46.7907 71.5177C46.54 71.4568 46.2821 71.4269 46.0234 71.4285C45.6534 71.406 45.2864 71.5043 44.9835 71.7071C44.8699 71.7863 44.7775 71.8899 44.714 72.0094C44.6505 72.1288 44.6177 72.2608 44.6181 72.3946C44.6148 72.5227 44.6454 72.6495 44.7069 72.7635C44.7685 72.8775 44.8591 72.9752 44.9706 73.0476C45.2056 73.2113 45.491 73.2971 45.7825 73.2916C46.019 73.2937 46.2533 73.2497 46.4711 73.1623C46.672 73.0828 46.8548 72.967 47.0092 72.8214C47.1572 72.6813 47.2743 72.5146 47.3535 72.3311C47.4324 72.1475 47.4723 71.951 47.471 71.7528V71.7561Z" fill="white"/>
<path d="M50.8125 67.7992H52.575V68.724H52.6925C52.7805 68.5585 52.8969 68.4079 53.0367 68.2783C53.1808 68.1414 53.3423 68.022 53.5174 67.9229C53.6979 67.8207 53.8903 67.7388 54.0907 67.6788C54.2877 67.6183 54.4935 67.5871 54.7006 67.5863C54.9161 67.5824 55.131 67.6083 55.3386 67.6632C55.499 67.7071 55.6515 67.7736 55.791 67.8605L55.2892 69.4528C55.1677 69.3966 55.04 69.3533 54.9085 69.3235C54.741 69.2892 54.57 69.2731 54.3986 69.2756C54.1551 69.272 53.914 69.3211 53.6936 69.4193C53.4843 69.5134 53.3003 69.6513 53.1554 69.8227C53.0022 70.0041 52.8855 70.2107 52.8112 70.4322C52.7296 70.6776 52.69 70.9338 52.6937 71.191V74.4737H50.8136V67.8058L50.8125 67.7992Z" fill="white"/>
<path d="M62.8745 72.8643C62.5575 73.4 62.1064 73.8535 61.5609 74.1847C60.9552 74.5351 60.2548 74.7102 59.5457 74.6884C59.0373 74.693 58.5327 74.6033 58.0605 74.4243C57.617 74.2552 57.2141 74.0027 56.8761 73.6822C56.5381 73.3616 56.2719 72.9796 56.0936 72.559C55.9023 72.1068 55.8069 71.6232 55.8128 71.136C55.8096 70.6675 55.9022 70.2028 56.0854 69.7677C56.2589 69.3481 56.5172 68.9647 56.8456 68.6389C57.1752 68.3142 57.5678 68.0528 58.0018 67.869C58.4649 67.6749 58.9666 67.5773 59.4729 67.5826C59.9886 67.5742 60.5008 67.664 60.9792 67.8466C61.4007 68.0112 61.7783 68.2623 62.0849 68.5821C62.3876 68.9061 62.6176 69.2852 62.7605 69.6964C62.9165 70.1442 62.9939 70.6132 62.9897 71.0848V71.2486C62.981 71.2979 62.9767 71.3479 62.9767 71.3979C62.9664 71.4471 62.9613 71.4971 62.9614 71.5472H57.6669C57.6959 71.7932 57.7757 72.0314 57.9019 72.2481C58.0154 72.4371 58.1661 72.6035 58.346 72.7384C58.519 72.8674 58.7159 72.9645 58.9265 73.0247C59.1363 73.0837 59.3539 73.1137 59.5727 73.1139C59.9509 73.128 60.3245 73.0307 60.642 72.8353C60.9191 72.6543 61.1477 72.4143 61.3094 72.1344L62.8733 72.8698L62.8745 72.8643ZM61.1672 70.278C61.1532 70.1409 61.1134 70.0073 61.0497 69.8836C60.9722 69.73 60.8654 69.5914 60.7348 69.4746C60.5847 69.3404 60.4093 69.2342 60.2178 69.1615C59.9825 69.0744 59.7313 69.0328 59.4788 69.0389C59.0979 69.034 58.726 69.1488 58.4213 69.3654C58.107 69.5945 57.8801 69.9145 57.775 70.2769L61.1672 70.278Z" fill="white"/>
<path d="M64.2031 64.726H66.0831V67.651L65.9656 68.6026H66.0831C66.2802 68.2996 66.5572 68.0507 66.8869 67.8805C67.3005 67.6701 67.7654 67.5671 68.2345 67.5819C68.6777 67.5812 69.1158 67.6713 69.5188 67.846C69.9249 68.0225 70.2909 68.2723 70.5963 68.5814C70.916 68.9075 71.1665 69.2888 71.3342 69.7046C71.5193 70.1602 71.6119 70.6449 71.6068 71.1331C71.613 71.6214 71.5204 72.1064 71.3342 72.5617C71.1651 72.9768 70.9147 73.3579 70.5963 73.6849C70.2913 73.9944 69.9252 74.2443 69.5188 74.4203C69.1161 74.5958 68.6778 74.686 68.2345 74.6844C67.7654 74.6994 67.3004 74.5964 66.8869 74.3857C66.5564 74.2166 66.2791 73.9675 66.0831 73.6637H65.9656V74.466H64.2031V64.7227V64.726ZM67.8456 73.0408C68.088 73.0409 68.3279 72.9943 68.5506 72.9038C68.7733 72.8144 68.9756 72.685 69.1464 72.5227C69.3255 72.3514 69.4669 72.148 69.5623 71.9243C69.7728 71.4165 69.7728 70.852 69.5623 70.3442C69.4655 70.1213 69.3243 69.9181 69.1464 69.7459C68.9759 69.5832 68.7735 69.4537 68.5506 69.3648C68.3279 69.2742 68.088 69.2276 67.8456 69.2277C67.6041 69.2274 67.3647 69.2713 67.1406 69.357C66.9176 69.4426 66.715 69.5699 66.5449 69.7314C66.3666 69.9031 66.2256 70.1064 66.1301 70.3297C65.9201 70.846 65.9201 71.418 66.1301 71.9343C66.2266 72.1572 66.3674 72.3603 66.5449 72.5327C66.7146 72.6946 66.9173 72.822 67.1406 72.9071C67.3647 72.9926 67.6041 73.0364 67.8456 73.0363V73.0408Z" fill="white"/>
<path d="M76.1391 67.5823C76.6526 67.577 77.1622 67.6667 77.6395 67.8464C78.0816 68.0131 78.483 68.264 78.8187 68.5837C79.1544 68.9034 79.4173 69.2851 79.5912 69.705C79.7818 70.1594 79.8772 70.6446 79.8721 71.1335C79.8783 71.6226 79.7829 72.108 79.5912 72.562C79.4173 72.982 79.1544 73.3636 78.8187 73.6833C78.483 74.003 78.0816 74.254 77.6395 74.4207C77.1625 74.6013 76.6527 74.691 76.1391 74.6848C75.6256 74.69 75.1159 74.6003 74.6386 74.4207C74.1965 74.254 73.7952 74.003 73.4595 73.6833C73.1238 73.3636 72.8608 72.982 72.6869 72.562C72.3127 71.6431 72.3127 70.625 72.6869 69.7061C72.8608 69.2862 73.1238 68.9046 73.4595 68.5849C73.7952 68.2652 74.1965 68.0142 74.6386 67.8475C75.1155 67.6665 75.6254 67.5764 76.1391 67.5823ZM76.1391 73.0423C76.378 73.0422 76.6145 72.9983 76.8358 72.913C77.0589 72.8275 77.2615 72.7001 77.4316 72.5386C77.6091 72.3672 77.7485 72.1637 77.8416 71.9403C78.041 71.4221 78.041 70.8539 77.8416 70.3357C77.7497 70.1117 77.6102 69.9079 77.4316 69.7373C77.2615 69.5758 77.0589 69.4485 76.8358 69.3629C76.6145 69.2777 76.378 69.2338 76.1391 69.2337C75.8975 69.2334 75.6581 69.2773 75.4341 69.3629C75.2141 69.4496 75.0144 69.5769 74.8466 69.7373C74.6691 69.9088 74.5296 70.1123 74.4365 70.3357C74.2371 70.8539 74.2371 71.4221 74.4365 71.9403C74.5285 72.1643 74.668 72.368 74.8466 72.5386C75.0144 72.6991 75.2141 72.8264 75.4341 72.913C75.658 72.9987 75.8976 73.0415 76.1391 73.039V73.0423Z" fill="white"/>
<path d="M85.4085 73.7618H85.291C85.0657 74.0201 84.7964 74.2408 84.4943 74.4148C84.1294 74.6095 83.7143 74.7037 83.2959 74.6867C82.9464 74.6891 82.5993 74.6317 82.2713 74.5173C81.9634 74.4108 81.6787 74.2518 81.4311 74.0482C81.1921 73.8485 81.0013 73.6022 80.8719 73.3261C80.7357 73.0351 80.6676 72.7196 80.6721 72.4013C80.6676 72.0793 80.7412 71.7605 80.8871 71.4697C81.0309 71.1929 81.2361 70.9489 81.4887 70.7544C81.7592 70.5487 82.0687 70.394 82.4005 70.2986C82.7702 70.1914 83.1549 70.1384 83.5415 70.1415C83.9219 70.1344 84.302 70.1688 84.6741 70.244C84.9228 70.2978 85.1671 70.3685 85.405 70.4557V70.2518C85.4078 70.083 85.369 69.9159 85.2919 69.7637C85.2149 69.6115 85.1015 69.4784 84.9608 69.3749C84.6476 69.1382 84.2555 69.0153 83.8552 69.0283C83.5361 69.0292 83.2216 69.1 82.9362 69.2354C82.6508 69.3707 82.4023 69.5668 82.2102 69.8083L80.8472 68.9236C81.2087 68.4875 81.674 68.139 82.2051 67.9065C82.7361 67.6741 83.3177 67.5644 83.9022 67.5864C84.8008 67.5272 85.6906 67.7865 86.399 68.3141C86.6992 68.5928 86.9318 68.9301 87.0805 69.3027C87.2292 69.6752 87.2906 70.074 87.2603 70.4713V74.4727H85.4085V73.7652V73.7618ZM85.4085 71.7561C85.1899 71.6571 84.9622 71.5773 84.7282 71.5177C84.4775 71.4568 84.2197 71.4269 83.9609 71.4285C83.5909 71.406 83.2239 71.5043 82.921 71.7071C82.8074 71.7863 82.7151 71.8899 82.6516 72.0094C82.5881 72.1288 82.5552 72.2608 82.5556 72.3946C82.5525 72.5226 82.5831 72.6494 82.6446 72.7634C82.7062 72.8775 82.7967 72.9751 82.9081 73.0476C83.1431 73.2113 83.4285 73.2971 83.72 73.2916C83.9565 73.2937 84.1908 73.2497 84.4086 73.1623C84.6095 73.0828 84.7923 72.967 84.9467 72.8214C85.0947 72.6813 85.2118 72.5146 85.291 72.3311C85.3699 72.1475 85.4099 71.951 85.4085 71.7528V71.7561Z" fill="white"/>
<path d="M89.3912 69.3235H88.1562V67.7992H89.3912V65.7578H91.2712V67.7992H92.9925V69.3235H91.27V71.9878C91.2689 72.1377 91.2859 72.2872 91.3205 72.4335C91.35 72.5629 91.4172 72.6818 91.5144 72.7767C91.586 72.8525 91.6749 72.9119 91.7742 72.9505C91.8735 72.9891 91.9807 73.0059 92.0878 72.9996C92.2185 73.0035 92.3491 72.9873 92.4744 72.9516C92.5708 72.92 92.6624 72.8765 92.747 72.8224L93.2781 74.3824C93.0535 74.4836 92.8168 74.5584 92.5731 74.6052C92.2968 74.6568 92.0157 74.6818 91.7341 74.6799C91.4082 74.6851 91.0842 74.6307 90.78 74.5195C90.5149 74.4227 90.2745 74.2734 90.075 74.0815C89.8396 73.8442 89.6582 73.5634 89.5421 73.2567C89.4261 72.9499 89.3779 72.6238 89.4006 72.2987V69.3135L89.3912 69.3235Z" fill="white"/>
</svg>
